<svg version="1.1" id="Capa_1" xmlns="http://www.w3.org/2000/svg" x="0" y="0" width="140" height="40" xml:space="preserve"><style>.st0{fill:#867878}</style><path class="st0" d="M7.6 4.6c.2-.1.3-.1.5-.2h.1c.1 0 .3-.1.4-.1h.1c.1 0 .3-.1.4-.1h.1c.2 0 .3-.1.5-.1h.1c.1 0 .3-.1.4-.1h.1c.2 0 .3-.1.5-.1s.3-.1.5-.1h6.4c.1 0 .1 0 .2.1s.1.1.2.1.1 0 .2.1c.1 0 .1 0 .2.1.1 0 .1 0 .2.1.1 0 .1 0 .2.1.1 0 .1 0 .2.1.1 0 .1 0 .2.1.1 0 .1 0 .2.1.1 0 .1 0 .2.1h.2c.1 0 .1 0 .2-.1.1 0 .1 0 .2-.1.1 0 .1 0 .2-.1.1 0 .1 0 .2-.1.1 0 .1 0 .2-.1.1 0 .1 0 .2-.1.1 0 .1 0 .2-.1.1 0 .1 0 .2-.1h.2c.1 0 .1 0 .2-.1h6.4c.2 0 .3 0 .5.1.2 0 .3.1.5.1h.1c.1 0 .3.1.4.1h.1c.1-.3.2-.2.4-.2h.1c.1 0 .3.1.4.1h.1c.1 0 .3.1.4.1h.1c.2.1.3.1.5.2 0 0 .1 0 .1.1.1 0 .1 0 .2.1C28.7 1.7 24.4.2 19.8.2c-4.6 0-8.9 1.6-12.4 4.4.1 0 .1 0 .2-.1-.1.1-.1.1 0 .1"/><path class="st0" d="M6.8 5.7c-.1 0-.2.1-.2.1-.1 0-.2.1-.2.1-.1 0-.2.1-.3.1-.1.1-.2.1-.2.2-.1 0-.2.1-.2.1-.1 0-.1.1-.2.1C1.9 10.1 0 14.9 0 20s1.9 9.9 5.4 13.6c.1 0 .2.1.2.1.1 0 .1.1.2.1s.2.1.2.1c.1 0 .2.1.2.1.1 0 .2.1.3.1.1 0 .2.1.2.1.1 0 .2.1.3.1.1 0 .2.1.2.1.1 0 .2.1.3.1.1 0 .2.1.2.1.1 0 .2.1.3.1.1 0 .2.1.2.1.2.2.3.2.4.2.1 0 .2.1.2.1.1 0 .2.1.3.1.1 0 .2.1.3.1.1 0 .2 0 .3.1.1 0 .2 0 .2.1.1 0 .2 0 .3.1.1 0 .2 0 .2.1.1 0 .2 0 .3.1h2.9c2.1 0 4.1-.4 6-1.2 2.1-.9 4-2.2 5.5-3.8.5-.5 1-1.1 1.4-1.8.1-.2.2-.3.3-.5l.1-.1c.1-.1.1-.2.2-.3l.1-.1c.1-.2.2-.3.3-.5v-.1c.1-.1.2-.3.2-.4 0 0 0-.1.1-.1.1-.1.1-.3.2-.4 0 0 0-.1.1-.1.1-.2.1-.3.2-.5-.4.5-.8 1.1-1.3 1.5-2 1.9-4.5 2.9-7.3 2.9-2.7 0-5.3-1-7.3-2.9S9.3 23 9.2 20.3v-.8c0-.7.1-1.5.2-2.2 0-.2.1-.4.1-.5v-.1c0-.1.1-.3.1-.4 0-.1 0-.1.1-.2 0-.1 0-.2.1-.3 0-.1.1-.2.1-.4 0-.1 0-.1.1-.2 0-.1.1-.3.1-.4 0-.1 0-.1.1-.2 0-.1.1-.3.2-.4v-.1c.1-.2.1-.3.2-.5v-.1c.1-.2.1-.3.2-.5v-.1c.1-.2.2-.3.2-.5v-.1c.1-.2.2-.3.3-.5.1-.2.2-.3.3-.5.1-.2.2-.3.3-.5.1-.2.2-.3.3-.5.1-.2.2-.3.3-.5l.1-.1c.1-.1.2-.2.2-.3 0-.1.1-.1.1-.2.1-.1.1-.2.2-.3.3.1.4.1.4 0 .1-.1.1-.2.2-.2l.2-.2.2-.2.2-.2.2-.2.2-.2c.1-.1.2-.1.3-.2.1 0 .1-.1.2-.1.1-.1.2-.1.3-.2.1 0 .1-.1.2-.1.1-.1.2-.2.3-.2l.1-.1c.2-.1.3-.2.5-.3h.1c0-.3.1-.4.3-.5.1 0 .1-.1.2-.1.1-.1.2-.1.3-.2.1 0 .1-.1.2-.1.1-.1.2-.1.3-.2.1 0 .1-.1.2-.1.1-.1.2-.1.3-.2.1 0 .1-.1.2-.1 0 0 .1 0 .1-.1-.1 0-.1 0-.2-.1h-.1c-.1 0-.2-.1-.3-.1-.1 0-.2-.1-.3-.1h-.1c-.1 0-.2 0-.2-.1h-.1c-.1 0-.1 0-.2-.1h-.7c-.1 0-.2 0-.4-.1h-4.7c-.1 0-.2 0-.3.1h-.3c-.1 0-.2 0-.3.1-.1 0-.2 0-.3.1-.1 0-.2 0-.3.1-.1 0-.2 0-.2.1-.1 0-.2.1-.3.1-.1 0-.2 0-.2.1-.6-.1-.6-.1-.7 0h-.3c-.1 0-.2.1-.3.1 0 .1-.1.1-.2.1s-.2.1-.3.1c-.1 0-.2.1-.2.1-.1 0-.2.1-.3.1 0 .1-.1.1-.2.2"/><path class="st0" d="M32.2 35.3c-.1 0-.1 0-.2.1h-.1c-.2.1-.3.1-.5.2h-.1c-.1 0-.3.1-.4.1h-.1c-.1 0-.3.1-.4.1h-.1c-.2 0-.3.1-.5.1h-.1c-.1 0-.3.1-.4.1h-.1c-.2 0-.3.1-.5.1s-.3 0-.5.1h-6.4c-.1 0-.1 0-.2-.1-.1 0-.1 0-.2-.1-.1 0-.1 0-.2-.1-.1 0-.1 0-.2-.1-.1 0-.1 0-.2-.1-.1 0-.1 0-.2-.1-.1 0-.1 0-.2-.1-.1 0-.1 0-.2-.1-.1 0-.1 0-.2-.1-.1 0-.1 0-.2-.1h-.2c-.1 0-.1 0-.2.1-.1 0-.1 0-.2.1-.1 0-.1 0-.2.1-.1 0-.1 0-.2.1-.1 0-.1 0-.2.1-.1 0-.1 0-.2.1-.1 0-.1 0-.2.1-.1 0-.1 0-.2.1-.1 0-.1 0-.2.1h-6.6c-.2 0-.3 0-.5-.1-.2 0-.3-.1-.5-.1h-.1c-.1 0-.3-.1-.4-.1h-.1c-.2 0-.3-.1-.5-.1H9c-.1 0-.3-.1-.4-.1h-.1c-.1 0-.3-.1-.4-.1H8c-.2-.1-.3-.1-.5-.2 0 0-.1 0-.1-.1-.1 0-.1 0-.2-.1 3.5 2.9 7.8 4.4 12.4 4.4 4.7.2 9.1-1.3 12.6-4.2"/><path class="st0" d="M32.6 34.3c.1 0 .2-.1.2-.1.1 0 .2-.1.3-.1.1 0 .2-.1.2-.1.1 0 .2-.1.2-.1.1 0 .1-.1.2-.1s.2-.1.2-.1c3.5-3.7 5.4-8.5 5.4-13.6s-1.8-10-5.3-13.7c-.1 0-.1-.1-.2-.1s-.2-.1-.2-.1c-.1 0-.2-.1-.2-.1-.1 0-.2-.1-.2-.1-.1 0-.2-.1-.2-.1-.1 0-.2-.1-.2-.1-.1 0-.2-.1-.2-.1-.1 0-.2-.1-.3-.1-.1 0-.2-.1-.2-.1-.1 0-.2-.1-.3-.1-.1 0-.2-.1-.2-.1-.1 0-.2-.1-.3-.1-.2-.2-.3-.2-.4-.2-.1 0-.2-.1-.3-.1-.1 0-.2 0-.2-.1-.1 0-.2-.1-.3-.1-.1 0-.2 0-.2-.1-.1 0-.2-.1-.3-.1-.1 0-.2 0-.2-.1-.1 0-.2 0-.3-.1h-.2c-.1 0-.2 0-.3-.1h-2.8c-2.1 0-4.1.4-6 1.2-1.9.8-3.7 1.9-5.1 3.4-.4.4-.8.8-1.1 1.3-.2.3-.5.6-.7.9-.1.1-.2.3-.3.5l-.1.1c-.1.1-.1.2-.2.3l-.1.1c-.1.2-.2.3-.3.5v.1c-.1.1-.2.3-.2.4 0 0 0 .1-.1.1-.1.1-.1.3-.2.4 0 0 0 .1-.1.1-.1.2-.1.3-.2.5.4-.5.8-1.1 1.3-1.5 2-1.9 4.5-2.9 7.3-2.9s5.3 1 7.3 2.9 3.1 4.4 3.2 7.1v.8c0 .9-.1 1.9-.3 2.8v.1c0 .1-.1.3-.1.4v.2c0 .1 0 .2-.1.3 0 .1-.1.2-.1.3 0 .1 0 .1-.1.2 0 .1-.1.3-.1.4 0 .1 0 .1-.1.2 0 .1-.1.3-.2.4v.1c0 .1-.1.2-.1.4v.1c-.1.2-.1.3-.2.5v.1c-.1.2-.2.3-.2.5v.1c-.1.2-.2.3-.3.5-.1.2-.2.3-.3.5-.1.2-.2.3-.3.5-.1.2-.2.3-.3.5-.1.2-.2.3-.3.5 0 .1-.1.1-.1.2-.1.1-.2.2-.2.3 0 .1-.1.1-.1.2-.1.1-.1.2-.2.3-.4-.1-.5-.1-.6 0-.1.1-.1.2-.2.2l-.2.2c-.1.1-.1.2-.2.2l-.2.2c0 .1-.1.1-.2.2l-.2.2c-.1.1-.2.1-.2.2l-.2.2c-.1.1-.2.1-.3.2-.1 0-.1.1-.2.1-.1.1-.2.2-.3.2l-.1.1c-.2.1-.3.2-.5.3h-.1c-.1.1-.3.2-.4.3-.1 0-.1.1-.2.1-.1.1-.2.1-.3.2-.1 0-.1.1-.2.1-.1.1-.2.1-.3.2-.1 0-.1.1-.2.1-.1.1-.2.1-.3.2-.1 0-.1.1-.2.1s-.1.1-.2.1c.1 0 .1 0 .2.1h.1c.1 0 .2.1.3.1.1 0 .2.1.3.1h.1c.1 0 .2 0 .2.1h.1c.1 0 .1 0 .2.1h.8c.1 0 .2 0 .4.1h4.9c.1 0 .2 0 .3-.1.1 0 .2 0 .3-.1.1 0 .2 0 .3-.1.1 0 .2 0 .2-.1.1 0 .2 0 .3-.1.1 0 .2 0 .2-.1.1 0 .2-.1.3-.1.1 0 .2-.1.2-.1.1 0 .2-.1.3-.1.1 0 .2-.1.2-.1.1 0 .2-.1.3-.1.1 0 .2-.1.2-.1.1 0 .2-.1.3-.1.1 0 .2-.1.2-.1.8.2.9.2.9.1m20.2-20.5h3.8c1 0 1.9.3 2.4.8.4.4.6.9.6 1.4 0 1.3-.8 1.9-1.6 2.2 1.1.3 2.1.9 2.1 2.2 0 1.5-1.3 2.5-3.3 2.5h-4v-9.1zm3.7 4.2c1.4 0 2.4-.7 2.4-1.9 0-1-.8-1.7-2.3-1.7h-3.1V18h3zm.3 4.4c1.6 0 2.6-.7 2.6-1.9 0-1.1-1-1.8-2.8-1.8h-3.1v3.7h3.3zm9-8.7h.7l4.3 9.3H70l-1.2-2.6h-5.4L62.2 23h-.7l4.3-9.3zm2.7 6.1l-2.4-5.3-2.4 5.3h4.8zm4.2-6h.6l6.4 8v-8h.6V23h-.5l-6.5-8.2V23h-.6zm10 4.6c0-2.6 1.9-4.8 4.6-4.8 1.6 0 2.6.6 3.6 1.5l-.5.5c-.8-.8-1.7-1.4-3.1-1.4-2.2 0-3.9 1.8-3.9 4.1s1.7 4.1 3.9 4.1c1.3 0 2.2-.5 3.2-1.4l.5.4c-1 1-2 1.6-3.7 1.6-2.7.2-4.6-1.9-4.6-4.6m9.4 0c0-2.5 1.9-4.8 4.6-4.8 2.8 0 4.6 2.2 4.6 4.7s-1.9 4.8-4.7 4.8c-2.6.1-4.5-2.2-4.5-4.7m8.6 0c0-2.3-1.7-4.2-3.9-4.2s-3.9 1.8-3.9 4.1 1.7 4.1 3.9 4.1c2.3.1 3.9-1.7 3.9-4m-48.4 13c0-2.9 2.2-5.3 5.3-5.3 1.8 0 2.9.5 3.9 1.4l-1.1 1.4c-.8-.7-1.6-1.1-2.9-1.1-1.9 0-3.3 1.7-3.3 3.6 0 2.1 1.4 3.7 3.5 3.7 1 0 1.8-.3 2.5-.8v-1.9h-2.6v-1.6H62v4.3c-1 .9-2.5 1.6-4.3 1.6-3.3 0-5.4-2.3-5.4-5.3m11.7.8v-5.9h1.8v5.8c0 1.9 1 2.9 2.6 2.9s2.6-1 2.6-2.9v-5.9h1.8V32c0 3.1-1.7 4.6-4.4 4.6-2.7.1-4.4-1.5-4.4-4.4m14.5-6h1.7l4.5 10.3h-1.9l-1-2.5H77l-1.1 2.5H74l4.5-10.3zm2.6 6.2l-1.8-4.1-1.8 4.1h3.6zm6.8.1l-4.1-6.2h2.1l2.9 4.5 2.9-4.5h2.1l-4.1 6.1v4.1h-1.8zm9.4-6.3H99l4.5 10.3h-1.9l-1-2.5h-4.8l-1.1 2.5h-1.8l4.4-10.3zm2.6 6.2l-1.8-4.1-1.8 4.1h3.6zm12.8 3.3c-.9.6-1.9 1-3.1 1-3.1 0-5.3-2.4-5.3-5.3s2.2-5.3 5.4-5.3c3.1 0 5.3 2.4 5.3 5.3 0 1.2-.4 2.3-1 3.1l1.2 1-1.2 1.3-1.3-1.1zm-1.4-1.2l-1.8-1.5 1.2-1.3 1.8 1.6c.4-.5.5-1.2.5-1.9 0-2-1.4-3.6-3.5-3.6-2 0-3.5 1.6-3.5 3.6s1.4 3.6 3.5 3.6c.7 0 1.3-.2 1.8-.5m5.6-2.3v-5.9h1.8v5.8c0 1.9 1 2.9 2.6 2.9s2.6-1 2.6-2.9v-5.9h1.8V32c0 3.1-1.7 4.6-4.4 4.6-2.7.1-4.4-1.5-4.4-4.4m11.4-5.9h1.8v10.2h-1.8zm4.5 0h1.8v8.6h5.4v1.6h-7.2z"/></svg>