<svg width="212" height="163" xmlns="http://www.w3.org/2000/svg"><g fill="none" fill-rule="evenodd"><path d="M44 115a2 2 0 1 1-4 0 2 2 0 0 1 4 0z" fill="#9BC9FF"/><path d="M133.31 2H6.69C4.1 2 2 4.164 2 6.833V31h136V6.833C138 4.164 135.9 2 133.31 2zM16.07 21.333c-2.59 0-4.69-2.164-4.69-4.833 0-2.67 2.1-4.833 4.69-4.833 2.59 0 4.69 2.164 4.69 4.833 0 2.67-2.1 4.833-4.69 4.833zm18.759 0c-2.59 0-4.69-2.164-4.69-4.833 0-2.67 2.1-4.833 4.69-4.833 2.59 0 4.69 2.164 4.69 4.833 0 2.67-2.1 4.833-4.69 4.833zm18.758 0c-2.59 0-4.69-2.164-4.69-4.833 0-2.67 2.1-4.833 4.69-4.833 2.59 0 4.69 2.164 4.69 4.833 0 2.67-2.1 4.833-4.69 4.833z" fill-opacity=".326" fill="#136DB6" fill-rule="nonzero"/><path d="M44 96a2 2 0 1 1-4 0 2 2 0 0 1 4 0z" fill="#9BC9FF"/><path d="M138.65 149.615h-47v-4.86c0-1.343-1.052-2.43-2.35-2.43h-9.4v-7.291c0-1.342-1.052-2.43-2.35-2.43h-4.7v-4.86h37.6c1.298 0 2.35-1.089 2.35-2.43V86.43c0-1.342-1.052-2.43-2.35-2.43h-79.9c-1.298 0-2.35 1.088-2.35 2.43v38.883c0 1.342 1.052 2.43 2.35 2.43h37.6v4.86h-4.7c-1.298 0-2.35 1.089-2.35 2.43v7.291h-9.4c-1.298 0-2.35 1.088-2.35 2.43v4.86h-47c-1.298 0-2.35 1.089-2.35 2.431s1.052 2.43 2.35 2.43h47v4.86c0 1.343 1.052 2.43 2.35 2.43h37.6c1.298 0 2.35-1.087 2.35-2.43v-4.86h47c1.298 0 2.35-1.088 2.35-2.43s-1.052-2.43-2.35-2.43zM32.9 88.86h75.2v14.581H32.9v-14.58zm0 19.442h75.2v14.58H32.9v-14.58zm54.05 48.603h-32.9v-9.72h9.4c1.298 0 2.35-1.088 2.35-2.43v-7.291h9.4v7.29c0 1.343 1.052 2.43 2.35 2.43h9.4v9.721z" fill="#136DB6" fill-rule="nonzero"/><path d="M47.4 115.86c0 2.684-2.104 4.86-4.7 4.86s-4.7-2.176-4.7-4.86 2.104-4.86 4.7-4.86 4.7 2.176 4.7 4.86zm56.3.57c0-1.342-1.052-2.43-2.35-2.43h-47c-1.298 0-2.35 1.088-2.35 2.43s1.052 2.43 2.35 2.43h47c1.298 0 2.35-1.088 2.35-2.43z" fill="#136DB6"/><path d="M133.95 0H7.05C3.157 0 0 3.264 0 7.29v89.917c0 4.026 3.157 7.29 7.05 7.29h14.1c1.298 0 2.35-1.087 2.35-2.43 0-1.341-1.052-2.43-2.35-2.43H7.05c-1.298 0-2.35-1.088-2.35-2.43V34.023h131.6v63.184c0 1.342-1.052 2.43-2.35 2.43h-14.284c-1.297 0-2.35 1.089-2.35 2.43 0 1.343 1.053 2.43 2.35 2.43h14.284c3.893 0 7.05-3.264 7.05-7.29V7.291C141 3.264 137.843 0 133.95 0zM4.7 29.162V7.291c0-1.343 1.052-2.43 2.35-2.43h126.9c1.298 0 2.35 1.087 2.35 2.43v21.871H4.7z" fill="#136DB6" fill-rule="nonzero"/><path d="M16.05 10C12.157 10 9 13.264 9 17.29c0 4.027 3.157 7.291 7.05 7.291s7.05-3.264 7.05-7.29c0-4.027-3.157-7.291-7.05-7.291zm0 9.72c-1.298 0-2.35-1.087-2.35-2.43 0-1.342 1.052-2.43 2.35-2.43s2.35 1.088 2.35 2.43c0 1.343-1.052 2.43-2.35 2.43zm19-9.72C31.157 10 28 13.264 28 17.29c0 4.027 3.157 7.291 7.05 7.291s7.05-3.264 7.05-7.29c0-4.027-3.157-7.291-7.05-7.291zm0 9.72c-1.298 0-2.35-1.087-2.35-2.43 0-1.342 1.052-2.43 2.35-2.43s2.35 1.088 2.35 2.43c0 1.343-1.052 2.43-2.35 2.43z" fill="#136DB6" fill-rule="nonzero"/><path d="M54.05 10C50.157 10 47 13.264 47 17.29c0 4.027 3.157 7.291 7.05 7.291s7.05-3.264 7.05-7.29c0-4.027-3.157-7.291-7.05-7.291zm0 9.72c-1.298 0-2.35-1.087-2.35-2.43 0-1.342 1.052-2.43 2.35-2.43s2.35 1.088 2.35 2.43c0 1.343-1.052 2.43-2.35 2.43z" fill="#D0021B" fill-rule="nonzero"/><path d="M47.4 95.86c0 2.684-2.104 4.86-4.7 4.86S38 98.545 38 95.86 40.104 91 42.7 91s4.7 2.176 4.7 4.86zM101.35 94h-47C53.052 94 52 95.088 52 96.43s1.052 2.43 2.35 2.43h47c1.298 0 2.35-1.088 2.35-2.43S102.648 94 101.35 94z" fill="#136DB6"/><rect stroke="#136DB6" stroke-width="5" fill-opacity=".349" fill="#136DB6" x="13.5" y="42.5" width="114" height="31" rx="4"/><path d="M202.682 163h-70.364c-3.318.004-6.387-1.727-8.055-4.543a8.997 8.997 0 0 1-.043-9.12l35.198-60.71c1.649-2.86 4.736-4.627 8.082-4.627 3.346 0 6.434 1.768 8.082 4.627l35.198 60.71a8.995 8.995 0 0 1-.043 9.12c-1.669 2.816-4.737 4.547-8.055 4.543z" fill="#FCE1E1"/><path fill="#D0021B" d="M177.75 115H161.5l-6.5 22.167h11.375L163.125 153 181 130.833h-9.75z"/><path d="M167 84V54.505H53.82V24.812" stroke="#D0021B" stroke-width="3" stroke-dasharray="7"/></g></svg>