<svg xmlns="http://www.w3.org/2000/svg" width="184" height="52"><path d="M69.3 18.1h5c1.4 0 2.5.4 3.2 1.1.5.5.8 1.1.8 1.9 0 1.6-1.1 2.5-2.1 2.9 1.5.4 2.7 1.2 2.7 2.9 0 2-1.7 3.3-4.3 3.3h-5.3V18.1zm4.9 5.6c1.8 0 3.1-.9 3.1-2.5 0-1.3-1.1-2.2-3-2.2h-4.1v4.8h4zm.4 5.7c2.1 0 3.4-1 3.4-2.5s-1.3-2.4-3.7-2.4h-4.1v4.9h4.4zM86.4 18h.9L93 30.2h-1l-1.5-3.4h-7.2l-1.5 3.4h-.9L86.4 18zm3.6 8l-3.2-7-3.2 7H90zm5.5-7.9h.8l8.4 10.5V18.1h.9v12.1h-.7l-8.5-10.8v10.8h-.9V18.1zm13.2 6.1c0-3.5 2.6-6.3 6.1-6.3 2.2 0 3.5.8 4.7 1.9l-.6.7c-1.1-1-2.3-1.8-4.1-1.8-2.9 0-5.1 2.4-5.1 5.4 0 3.1 2.2 5.5 5.1 5.5 1.7 0 2.9-.7 4.2-1.9l.6.6c-1.3 1.3-2.7 2.1-4.8 2.1-3.6 0-6.1-2.8-6.1-6.2zm12.4 0c0-3.3 2.4-6.3 6.1-6.3 3.7 0 6.1 2.9 6.1 6.2 0 3.3-2.4 6.3-6.1 6.3-3.7 0-6.1-2.9-6.1-6.2zm11.2 0c0-3-2.2-5.5-5.2-5.5s-5.1 2.4-5.1 5.4c0 3 2.2 5.5 5.2 5.5s5.1-2.4 5.1-5.4zm-63.6 17c0-3.8 2.9-7 6.9-7 2.3 0 3.8.7 5.2 1.8l-1.5 1.8c-1-.9-2.1-1.4-3.8-1.4-2.5 0-4.4 2.2-4.4 4.8 0 2.8 1.8 4.8 4.6 4.8 1.3 0 2.4-.4 3.3-1v-2.5h-3.4v-2.1h5.7v5.7c-1.3 1.1-3.2 2.1-5.6 2.1-4.3 0-7-3-7-7zm15.4 1v-7.8h2.4v7.7c0 2.5 1.3 3.8 3.4 3.8 2.1 0 3.4-1.3 3.4-3.8v-7.8h2.4v7.6c0 4-2.3 6-5.8 6-3.5.2-5.8-1.8-5.8-5.7zm19.1-7.8h2.2l5.9 13.6h-2.5l-1.4-3.3H101L99.6 48h-2.4l6-13.6zm3.4 8.2l-2.3-5.4-2.3 5.4h4.6zm8.9 0l-5.3-8.2h2.8l3.8 6 3.8-6h2.7l-5.3 8.1v5.4h-2.4v-5.3zm12.4-8.2h2.2L136 48h-2.5l-1.4-3.3h-6.4l-1.4 3.3H122l5.9-13.6zm3.4 8.2l-2.3-5.4-2.3 5.4h4.6zm16.8 4.3c-1.1.8-2.5 1.3-4.1 1.3-4.1 0-7-3.1-7-6.9 0-3.8 2.9-7 7.1-7 4.1 0 7 3.1 7 6.9 0 1.5-.5 3-1.4 4.1l1.5 1.3-1.5 1.7-1.6-1.4zm-1.8-1.6l-2.3-2 1.5-1.7 2.3 2.1c.5-.7.7-1.6.7-2.5 0-2.6-1.9-4.8-4.6-4.8-2.7 0-4.5 2.1-4.5 4.8 0 2.6 1.9 4.8 4.6 4.8.9 0 1.7-.3 2.3-.7zm7.4-3.1v-7.8h2.4v7.7c0 2.5 1.3 3.8 3.4 3.8 2.1 0 3.4-1.3 3.4-3.8v-7.8h2.4v7.6c0 4-2.3 6-5.8 6-3.6.2-5.8-1.8-5.8-5.7zm14.9-7.7h2.4V48h-2.4V34.5zm6 0h2.4v11.3h7.1V48h-9.4V34.5z" fill="#fff"/><radialGradient id="a" cx="16.715" cy="67.177" r="58.292" gradientTransform="translate(-16.17 -39.782) scale(.9863)" gradientUnits="userSpaceOnUse"><stop offset=".276" stop-color="#981a58"/><stop offset=".6" stop-color="#6e0f41"/></radialGradient><path d="M25.9 45.4c-2.4 1-5.1 1.5-7.9 1.5-4 0-7.7-1.1-10.9-3 4.7 5 11.4 8 18.8 8s14-3.1 18.8-8c-3.2 1.9-6.9 3-10.9 3-2.8 0-5.4-.5-7.9-1.5z" fill="url(#a)"/><radialGradient id="b" cx="29.233" cy="39.545" r="41.573" gradientTransform="translate(-16.17 -39.782) scale(.9863)" gradientUnits="userSpaceOnUse"><stop offset="0" stop-color="#5568b3"/><stop offset=".5" stop-color="#0b4d7d"/></radialGradient><path d="M25.9 6.6c2.4-1 5.1-1.5 7.9-1.5 4 0 7.7 1.1 10.9 3-4.7-5-11.4-8-18.8-8s-14 3.1-18.8 8c3.2-1.9 6.9-3 10.9-3 2.8 0 5.5.5 7.9 1.5z" fill="url(#b)"/><radialGradient id="c" cx="16.451" cy="40.496" r="67.079" gradientTransform="translate(-16.17 -39.782) scale(.9863)" gradientUnits="userSpaceOnUse"><stop offset="0" stop-color="#27aae1"/><stop offset=".5" stop-color="#1268b3"/></radialGradient><path d="M25.9 41.2c-3.5 0-6.7-1.2-9.2-3.1-3.6-2.8-6-7.2-6-12.1 0-4.9 2.3-9.3 6-12.1 2.3-3.2 5.5-5.8 9.2-7.3-2.4-1-5.1-1.5-7.9-1.5-4 0-7.7 1.1-10.9 3C2.7 12.8 0 19.1 0 26c0 6.9 2.7 13.2 7.2 17.9 3.2 1.9 6.9 3 10.9 3 2.8 0 5.5-.5 7.9-1.5 3.7-1.5 6.9-4.1 9.2-7.3-2.6 1.9-5.8 3.1-9.3 3.1z" fill="url(#c)"/><radialGradient id="d" cx="42.632" cy="53.618" r="59.165" gradientTransform="translate(-16.17 -39.782) scale(.9863)" gradientUnits="userSpaceOnUse"><stop offset=".3" stop-color="#c81d7f"/><stop offset=".45" stop-color="#981a58"/></radialGradient><path d="M44.7 8.1c-3.2-1.9-6.9-3-10.9-3-2.8 0-5.5.5-7.9 1.5-3.7 1.5-6.9 4.1-9.2 7.3 2.6-2 5.7-3.1 9.2-3.1s6.7 1.2 9.2 3.1c3.6 2.8 6 7.2 6 12.1 0 4.9-2.3 9.3-6 12.1-2.3 3.2-5.5 5.8-9.2 7.3 2.4 1 5.1 1.5 7.9 1.5 4 0 7.7-1.1 10.9-3 4.4-4.7 7.2-11 7.2-17.9 0-6.9-2.8-13.2-7.2-17.9z" fill="url(#d)"/><radialGradient id="e" cx="43.46" cy="73.392" r="42.58" gradientTransform="translate(-16.17 -39.782) scale(.9863)" gradientUnits="userSpaceOnUse"><stop offset="0" stop-color="#27aae1"/><stop offset=".5" stop-color="#1268b3"/></radialGradient><path d="M25.9 39.1c-7.1 0-12.8-5.6-13.1-12.6V26c0-4.5 1.4-8.7 3.8-12.1-3.6 2.8-6 7.2-6 12.1 0 4.9 2.3 9.3 6 12.1 2.6 2 5.7 3.1 9.2 3.1s6.7-1.2 9.2-3.1c2.3-3.3 3.7-7.3 3.8-11.6-.1 7-5.8 12.6-12.9 12.6z" fill="url(#e)"/><path d="M35.1 13.9c-2.6-2-5.8-3.1-9.2-3.1s-6.7 1.2-9.2 3.1c-2.3 3.3-3.7 7.3-3.8 11.6.2-7 6-12.6 13.1-12.6s12.8 5.6 13 12.6v.5c0 4.5-1.4 8.7-3.8 12.1 3.6-2.8 6-7.2 6-12.1-.1-4.9-2.4-9.3-6.1-12.1zM12.9 25.5z" fill="#810048"/><linearGradient id="f" gradientUnits="userSpaceOnUse" x1="-7.898" y1="4.601" x2="41.049" y2="28.752"><stop offset="0" stop-color="#181a19"/><stop offset=".09" stop-color="#181a19" stop-opacity=".91"/><stop offset="1" stop-color="#181a19" stop-opacity="0"/></linearGradient><path d="M35.1 13.9c-2.6-2-5.8-3.1-9.2-3.1s-6.7 1.2-9.2 3.1c-2.3 3.3-3.7 7.3-3.8 11.6.2-7 6-12.6 13.1-12.6s12.8 5.6 13 12.6v.5c0 4.5-1.4 8.7-3.8 12.1 3.6-2.8 6-7.2 6-12.1-.1-4.9-2.4-9.3-6.1-12.1z" fill="url(#f)"/></svg>